<svg xmlns="http://www.w3.org/2000/svg" width="1000" height="292" viewBox="0 0 1000 292" fill="none"><g clip-path="url(#clip0_25_80)"><path d="M234.447 25.921C211.339 23.1635 180.785 17.2071 153.927 4.24663C142.18 -1.43394 128.557 -1.43394 116.81 4.24663C89.9515 17.2071 59.3978 23.1635 36.2894 25.921C15.5526 28.4028 0 46.1063 0 66.9534V125.579C0 125.579 2.3715 224.355 119.071 287.337C129.219 292.797 141.463 292.797 151.61 287.337C268.31 224.3 270.682 125.579 270.682 125.579V66.9534C270.682 46.1063 255.129 28.4028 234.392 25.921H234.447ZM188.617 179.903L188.507 180.013C160.6 207.92 114.108 206.045 88.683 174.333C68.994 149.79 69.4353 113.887 89.6206 89.7309C99.3272 78.1491 111.902 70.7589 125.303 67.5601C129.44 66.5674 131.977 71.7516 128.778 74.5091C125.193 77.5425 121.939 81.1273 119.016 85.2636C103.905 106.828 105.394 136.609 122.711 156.464C138.705 174.774 163.247 180.399 184.48 173.395C188.396 172.127 191.485 176.98 188.617 179.848V179.903ZM193.139 112.122L182.219 120.064C180.73 121.167 180.124 123.042 180.675 124.807L184.867 137.602C185.584 139.863 183.047 141.738 181.116 140.36L170.196 132.418C168.707 131.315 166.667 131.315 165.233 132.418L154.313 140.36C152.383 141.738 149.846 139.863 150.563 137.602L154.754 124.807C155.306 123.042 154.754 121.167 153.21 120.064L142.29 112.122C140.36 110.743 141.352 107.71 143.724 107.71H157.181C159.001 107.71 160.655 106.552 161.207 104.787L165.398 91.9921C166.115 89.7309 169.314 89.7309 170.031 91.9921L174.222 104.787C174.774 106.552 176.428 107.71 178.248 107.71H191.705C194.077 107.71 195.069 110.743 193.139 112.122Z" fill="url(#paint0_radial_25_80)"></path><g style="mix-blend-mode:overlay" opacity="0.2"><path d="M61.8244 47.099C68.5529 53.2759 65.6299 67.4498 55.2063 78.7006C44.7827 89.9514 30.995 94.0326 24.2114 87.8557C17.4278 81.6788 16.2145 62.9825 26.5829 51.7317C36.9513 40.4809 55.0408 40.9221 61.7693 47.099H61.8244Z" fill="white"></path></g><g style="mix-blend-mode:overlay" opacity="0.1"><path d="M270.682 125.579V66.9535C270.682 46.1063 255.129 28.4028 234.392 25.921C211.284 23.1635 180.73 17.2072 153.872 4.24666C147.419 1.10304 140.36 -0.220583 133.355 0.110324C149.184 75.3916 206.872 83.6091 270.351 129.936C270.626 127.123 270.682 125.579 270.682 125.579Z" fill="white"></path></g><g style="mix-blend-mode:overlay" opacity="0.1"><path d="M270.682 66.9535C270.682 46.1063 255.129 28.4028 234.392 25.921C211.284 23.1635 180.73 17.2071 153.872 4.24664C148.026 1.43393 141.738 0 135.396 0C134.9 0.110302 134.458 0.110302 134.017 0.0551511C133.797 0.0551511 133.631 0.0551511 133.411 0.0551511C162.31 52.9451 215.31 54.5996 270.682 81.4582V66.8983V66.9535Z" fill="white"></path></g><path d="M972.535 32.7598C923.23 32.7598 890.139 68.1668 891.187 114.383V221.983H931.447V165.619H942.257C964.483 165.619 982.517 147.584 982.517 125.358H931.447V113.722C931.337 111.13 930.84 73.0201 972.535 73.0201C980.476 73.0201 987.536 68.0013 990.183 60.5559L1000 32.7598H972.535Z" fill="#212222"></path><path d="M749.228 221.983H708.968V35.1864C731.194 35.1864 749.228 53.2208 749.228 75.4467V86.146C758.824 80.9067 769.799 77.9285 781.712 77.8734C827.929 76.7703 863.391 109.916 863.391 159.221V222.038H823.13V155.802C823.13 135.341 806.585 118.795 786.124 118.795C765.663 118.795 749.118 135.396 749.118 155.857L749.228 222.038V221.983Z" fill="#212222"></path><path d="M388.209 35.1864V221.983H428.469V186.411L450.199 161.427L476.175 206.817C481.469 216.082 491.341 221.818 502.041 221.873L531.271 221.983L477.223 131.26L529.892 70.4832H497.959C488.418 70.4832 479.318 74.6746 473.141 82.0097L428.524 134.845V75.3916C428.524 53.1657 410.49 35.1313 388.264 35.1313L388.209 35.1864Z" fill="#212222"></path><path d="M608.207 68.1667C565.74 68.1667 531.271 102.581 531.271 145.103C531.271 187.624 565.685 222.038 608.207 222.038C621.498 222.038 633.962 218.674 644.882 212.773V222.038H685.142V145.103C685.142 102.636 650.728 68.1667 608.207 68.1667ZM644.882 145.103L643.834 181.227C643.834 182.936 641.738 183.763 640.525 182.55L631.37 173.561C624.421 179.241 615.376 182.385 605.559 181.668C588.297 180.454 573.847 166.722 571.862 149.57C568.718 123.097 593.867 101.368 621.057 110.633C635.562 115.597 644.937 129.771 644.937 145.103H644.882Z" fill="#212222"></path><path d="M401.776 288.771C401.279 288.771 400.783 288.661 400.342 288.385C399.901 288.109 399.68 287.778 399.68 287.227V274.542C399.68 274.542 399.68 274.156 399.57 274.046L389.146 254.633C389.146 254.633 389.036 254.302 388.981 254.136C388.981 253.971 388.981 253.861 388.981 253.75C388.981 253.419 389.091 253.088 389.367 252.868C389.643 252.592 389.973 252.371 390.359 252.261C390.746 252.096 391.132 252.041 391.463 252.041C391.793 252.041 392.124 252.151 392.345 252.316C392.566 252.482 392.786 252.757 392.952 253.144L401.721 270.351L410.545 253.144C410.765 252.757 410.986 252.482 411.207 252.316C411.427 252.151 411.703 252.041 412.034 252.041C412.42 252.041 412.751 252.096 413.192 252.261C413.578 252.427 413.909 252.647 414.185 252.868C414.461 253.144 414.571 253.419 414.571 253.75C414.571 253.861 414.571 253.971 414.571 254.136C414.571 254.302 414.461 254.467 414.405 254.633L403.982 274.046C403.982 274.046 403.816 274.322 403.816 274.542V287.227C403.816 287.723 403.596 288.109 403.155 288.385C402.713 288.661 402.217 288.771 401.721 288.771H401.776Z" fill="black"></path><path d="M437.9 289.047C435.859 289.047 434.039 288.661 432.385 287.944C430.785 287.227 429.462 286.069 428.524 284.469C427.587 282.87 427.09 280.719 427.09 278.072V262.96C427.09 260.258 427.587 258.162 428.524 256.563C429.462 254.964 430.785 253.805 432.385 253.088C433.984 252.371 435.859 251.985 437.9 251.985C439.94 251.985 441.76 252.371 443.415 253.088C445.069 253.805 446.338 254.964 447.331 256.563C448.268 258.162 448.765 260.313 448.765 262.96V278.072C448.765 280.774 448.268 282.87 447.331 284.469C446.393 286.069 445.069 287.227 443.415 287.944C441.76 288.661 439.94 289.047 437.9 289.047ZM437.9 285.242C439.996 285.242 441.595 284.69 442.753 283.532C443.911 282.374 444.518 280.554 444.518 278.127V263.016C444.518 260.589 443.911 258.769 442.753 257.611C441.595 256.453 439.94 255.901 437.9 255.901C435.859 255.901 434.205 256.453 433.046 257.611C431.888 258.769 431.337 260.589 431.337 263.016V278.127C431.337 280.554 431.888 282.374 433.046 283.532C434.205 284.69 435.804 285.242 437.9 285.242Z" fill="black"></path><path d="M475.292 289.047C473.252 289.047 471.432 288.661 469.777 287.944C468.123 287.227 466.854 286.069 465.861 284.469C464.869 282.87 464.427 280.719 464.427 278.072V253.474C464.427 252.978 464.648 252.592 465.089 252.371C465.531 252.151 466.027 252.041 466.523 252.041C467.02 252.041 467.571 252.151 467.957 252.371C468.398 252.592 468.619 252.978 468.619 253.474V278.072C468.619 280.498 469.226 282.318 470.384 283.477C471.597 284.635 473.197 285.186 475.347 285.186C477.498 285.186 479.098 284.635 480.311 283.477C481.524 282.318 482.076 280.498 482.076 278.072V253.474C482.076 252.978 482.296 252.592 482.738 252.371C483.179 252.151 483.675 252.041 484.172 252.041C484.668 252.041 485.219 252.151 485.606 252.371C486.047 252.592 486.267 252.978 486.267 253.474V278.072C486.267 280.774 485.771 282.87 484.833 284.469C483.896 286.069 482.572 287.227 480.918 287.944C479.263 288.661 477.388 289.047 475.292 289.047Z" fill="black"></path><path d="M521.233 288.771C520.902 288.771 520.516 288.716 520.075 288.551C519.634 288.385 519.303 288.165 519.082 287.944C518.806 287.668 518.696 287.392 518.696 287.062C518.696 286.951 518.696 286.786 518.696 286.675L529.009 253.254C529.12 252.758 529.451 252.371 529.947 252.151C530.443 251.93 530.995 251.82 531.546 251.82C532.153 251.82 532.705 251.93 533.201 252.206C533.697 252.482 534.028 252.813 534.138 253.309L544.397 286.731C544.397 286.731 544.507 287.006 544.507 287.062C544.507 287.392 544.341 287.723 544.066 287.944C543.79 288.22 543.459 288.44 543.018 288.606C542.632 288.771 542.246 288.881 541.86 288.881C541.474 288.881 541.198 288.826 540.922 288.661C540.646 288.495 540.481 288.275 540.371 287.944L538.109 280.443H524.873L522.722 287.944C522.612 288.275 522.446 288.495 522.171 288.661C521.895 288.826 521.564 288.881 521.123 288.881L521.233 288.771ZM525.976 276.859H537.227L531.602 257.997L525.976 276.859Z" fill="black"></path><path d="M577.487 288.882C577.101 288.882 576.715 288.716 576.384 288.385C576.053 288.054 575.778 287.668 575.557 287.227L568.001 272.502H562.155V287.282C562.155 287.778 561.935 288.165 561.493 288.44C561.052 288.716 560.556 288.826 560.06 288.826C559.563 288.826 559.067 288.716 558.626 288.44C558.184 288.165 557.964 287.834 557.964 287.282V253.53C557.964 253.144 558.129 252.813 558.405 252.537C558.681 252.261 559.067 252.096 559.508 252.096H568.718C570.759 252.096 572.634 252.427 574.344 253.033C576.053 253.64 577.377 254.688 578.37 256.122C579.362 257.556 579.859 259.596 579.859 262.133C579.859 264.174 579.528 265.883 578.866 267.207C578.204 268.531 577.322 269.579 576.164 270.351C575.005 271.123 573.737 271.619 572.358 271.95L579.804 286.069C579.804 286.069 579.914 286.345 579.969 286.455C579.969 286.565 579.969 286.675 579.969 286.786C579.969 287.172 579.859 287.503 579.583 287.834C579.307 288.165 579.031 288.44 578.645 288.661C578.259 288.882 577.873 288.937 577.487 288.937V288.882ZM562.21 268.972H568.663C570.759 268.972 572.413 268.476 573.682 267.483C574.95 266.49 575.612 264.78 575.612 262.409C575.612 260.037 574.95 258.328 573.682 257.335C572.413 256.342 570.759 255.846 568.663 255.846H562.21V268.972Z" fill="black"></path><path d="M596.018 288.771C595.577 288.771 595.136 288.661 594.694 288.385C594.253 288.109 594.088 287.779 594.088 287.227V253.53C594.088 253.033 594.308 252.647 594.694 252.371C595.08 252.096 595.522 251.985 596.018 251.985H613.887C614.439 251.985 614.825 252.206 614.99 252.592C615.155 252.978 615.321 253.419 615.321 253.861C615.321 254.357 615.211 254.798 614.935 255.239C614.659 255.625 614.328 255.846 613.832 255.846H598.279V268.586H606.111C606.552 268.586 606.938 268.751 607.214 269.137C607.489 269.523 607.6 269.91 607.6 270.406C607.6 270.792 607.489 271.178 607.269 271.564C607.048 271.95 606.662 272.116 606.111 272.116H598.279V284.911H613.832C614.273 284.911 614.659 285.131 614.935 285.517C615.211 285.903 615.321 286.345 615.321 286.896C615.321 287.337 615.211 287.723 614.99 288.165C614.769 288.606 614.383 288.771 613.887 288.771H596.018Z" fill="black"></path><path d="M656.795 289.157C654.644 289.157 652.769 288.826 651.169 288.165C649.57 287.503 648.301 286.731 647.474 285.848C646.592 284.966 646.15 284.138 646.15 283.477C646.15 283.146 646.261 282.815 646.426 282.429C646.592 282.098 646.867 281.767 647.143 281.546C647.419 281.271 647.695 281.16 648.026 281.16C648.412 281.16 648.798 281.381 649.184 281.767C649.57 282.153 650.066 282.649 650.618 283.201C651.224 283.752 651.941 284.249 652.879 284.635C653.816 285.021 655.03 285.242 656.574 285.242C657.953 285.242 659.221 285.021 660.214 284.58C661.262 284.138 662.089 283.422 662.641 282.539C663.247 281.602 663.523 280.443 663.523 279.065C663.523 277.686 663.247 276.472 662.641 275.535C662.034 274.652 661.262 273.88 660.269 273.274C659.276 272.667 658.228 272.116 657.07 271.674C655.912 271.233 654.754 270.737 653.541 270.24C652.327 269.744 651.279 269.137 650.287 268.42C649.294 267.703 648.522 266.766 647.915 265.608C647.309 264.45 647.033 263.016 647.033 261.306C647.033 259.486 647.364 257.942 648.026 256.728C648.687 255.515 649.57 254.577 650.673 253.861C651.776 253.144 652.989 252.647 654.258 252.371C655.526 252.096 656.795 251.93 658.063 251.93C658.945 251.93 659.938 251.985 660.931 252.151C661.924 252.316 662.861 252.482 663.799 252.758C664.681 253.033 665.453 253.364 666.005 253.805C666.556 254.247 666.832 254.743 666.832 255.294C666.832 255.57 666.777 255.846 666.611 256.232C666.501 256.563 666.281 256.894 666.005 257.17C665.729 257.445 665.398 257.611 665.012 257.611C664.626 257.611 664.185 257.445 663.633 257.114C663.082 256.784 662.365 256.453 661.482 256.177C660.6 255.846 659.442 255.681 658.008 255.681C656.795 255.681 655.691 255.846 654.644 256.177C653.596 256.508 652.768 257.059 652.107 257.831C651.5 258.604 651.169 259.651 651.169 260.92C651.169 262.188 651.445 263.126 652.052 263.898C652.658 264.67 653.43 265.277 654.423 265.828C655.416 266.38 656.464 266.766 657.622 267.207C658.78 267.648 659.938 268.09 661.151 268.641C662.31 269.193 663.413 269.854 664.405 270.682C665.398 271.509 666.17 272.557 666.777 273.825C667.384 275.094 667.659 276.748 667.659 278.679C667.659 281.105 667.163 283.091 666.225 284.635C665.288 286.179 663.964 287.337 662.31 288.109C660.655 288.881 658.78 289.268 656.629 289.268L656.795 289.157Z" fill="black"></path><path d="M682.109 288.771C681.778 288.771 681.392 288.716 680.951 288.551C680.51 288.385 680.179 288.165 679.958 287.944C679.682 287.668 679.572 287.392 679.572 287.062C679.572 286.951 679.572 286.786 679.572 286.675L689.885 253.254C689.996 252.758 690.326 252.371 690.823 252.151C691.319 251.93 691.871 251.82 692.422 251.82C693.029 251.82 693.58 251.93 694.077 252.206C694.573 252.482 694.904 252.813 695.014 253.309L705.272 286.731C705.272 286.731 705.383 287.006 705.383 287.062C705.383 287.392 705.217 287.723 704.942 287.944C704.666 288.22 704.335 288.44 703.894 288.606C703.508 288.771 703.122 288.881 702.735 288.881C702.349 288.881 702.074 288.826 701.798 288.661C701.522 288.495 701.357 288.275 701.246 287.944L698.985 280.443H685.749L683.598 287.944C683.488 288.275 683.322 288.495 683.047 288.661C682.771 288.826 682.44 288.881 681.999 288.881L682.109 288.771ZM686.852 276.859H698.103L692.477 257.997L686.852 276.859Z" fill="black"></path><path d="M720.99 288.771C720.494 288.771 719.998 288.661 719.557 288.44C719.115 288.22 718.895 287.834 718.895 287.337V253.585C718.895 253.088 719.115 252.702 719.501 252.427C719.887 252.151 720.329 252.041 720.825 252.041H738.529C739.025 252.041 739.411 252.261 739.632 252.647C739.852 253.033 739.962 253.474 739.962 253.916C739.962 254.412 739.852 254.853 739.576 255.294C739.301 255.681 738.97 255.901 738.473 255.901H723.031V268.641H730.918C731.359 268.641 731.745 268.806 732.021 269.193C732.296 269.579 732.407 269.965 732.407 270.461C732.407 270.847 732.296 271.233 732.076 271.619C731.855 272.005 731.469 272.171 730.973 272.171H723.086V287.337C723.086 287.834 722.866 288.22 722.424 288.44C721.983 288.661 721.487 288.771 720.99 288.771Z" fill="black"></path><path d="M754.853 288.771C754.412 288.771 753.971 288.661 753.53 288.385C753.088 288.109 752.923 287.779 752.923 287.227V253.53C752.923 253.033 753.144 252.647 753.53 252.371C753.916 252.096 754.357 251.985 754.853 251.985H772.722C773.274 251.985 773.66 252.206 773.825 252.592C773.991 252.978 774.156 253.419 774.156 253.861C774.156 254.357 774.046 254.798 773.77 255.239C773.494 255.625 773.163 255.846 772.667 255.846H757.114V268.586H764.946C765.387 268.586 765.773 268.751 766.049 269.137C766.325 269.523 766.435 269.91 766.435 270.406C766.435 270.792 766.325 271.178 766.104 271.564C765.883 271.95 765.497 272.116 764.946 272.116H757.114V284.911H772.667C773.108 284.911 773.494 285.131 773.77 285.517C774.046 285.903 774.156 286.345 774.156 286.896C774.156 287.337 774.046 287.723 773.825 288.165C773.605 288.606 773.219 288.771 772.722 288.771H754.853Z" fill="black"></path><path d="M809.012 288.771C808.515 288.771 808.019 288.661 807.578 288.385C807.136 288.109 806.916 287.778 806.916 287.227V253.474C806.916 252.978 807.136 252.592 807.578 252.371C808.019 252.151 808.515 252.041 809.012 252.041C809.563 252.041 810.059 252.151 810.445 252.371C810.887 252.592 811.107 252.978 811.107 253.474V267.924H824.73V253.474C824.73 252.978 824.95 252.592 825.391 252.371C825.833 252.151 826.329 252.041 826.825 252.041C827.377 252.041 827.873 252.151 828.259 252.371C828.7 252.592 828.921 252.978 828.921 253.474V287.227C828.921 287.723 828.7 288.109 828.259 288.385C827.818 288.661 827.322 288.771 826.825 288.771C826.329 288.771 825.833 288.661 825.391 288.385C824.95 288.109 824.73 287.778 824.73 287.227V271.454H811.107V287.227C811.107 287.723 810.887 288.109 810.445 288.385C810.004 288.661 809.508 288.771 809.012 288.771Z" fill="black"></path><path d="M847.066 288.771C846.625 288.771 846.184 288.661 845.742 288.385C845.301 288.109 845.136 287.779 845.136 287.227V253.53C845.136 253.033 845.356 252.647 845.742 252.371C846.128 252.096 846.57 251.985 847.066 251.985H864.935C865.486 251.985 865.873 252.206 866.038 252.592C866.203 252.978 866.369 253.419 866.369 253.861C866.369 254.357 866.259 254.798 865.983 255.239C865.707 255.625 865.376 255.846 864.88 255.846H849.327V268.586H857.159C857.6 268.586 857.986 268.751 858.262 269.137C858.537 269.523 858.648 269.91 858.648 270.406C858.648 270.792 858.537 271.178 858.317 271.564C858.096 271.95 857.71 272.116 857.159 272.116H849.327V284.911H864.88C865.321 284.911 865.707 285.131 865.983 285.517C866.259 285.903 866.369 286.345 866.369 286.896C866.369 287.337 866.259 287.723 866.038 288.165C865.817 288.606 865.431 288.771 864.935 288.771H847.066Z" fill="black"></path><path d="M899.515 288.882C899.128 288.882 898.742 288.716 898.411 288.385C898.081 288.054 897.805 287.668 897.584 287.227L890.029 272.502H884.183V287.282C884.183 287.778 883.962 288.165 883.521 288.44C883.079 288.716 882.583 288.826 882.087 288.826C881.59 288.826 881.094 288.716 880.653 288.44C880.212 288.165 879.991 287.834 879.991 287.282V253.53C879.991 253.144 880.156 252.813 880.432 252.537C880.708 252.261 881.094 252.096 881.535 252.096H890.745C892.786 252.096 894.661 252.427 896.371 253.033C898.081 253.64 899.404 254.688 900.397 256.122C901.39 257.556 901.886 259.596 901.886 262.133C901.886 264.174 901.555 265.883 900.893 267.207C900.231 268.531 899.349 269.579 898.191 270.351C897.033 271.123 895.764 271.619 894.385 271.95L901.831 286.069C901.831 286.069 901.941 286.345 901.996 286.455C901.996 286.565 901.996 286.675 901.996 286.786C901.996 287.172 901.886 287.503 901.61 287.834C901.334 288.165 901.059 288.44 900.673 288.661C900.287 288.882 899.901 288.937 899.515 288.937V288.882ZM884.238 268.972H890.69C892.786 268.972 894.441 268.476 895.709 267.483C896.978 266.49 897.639 264.78 897.639 262.409C897.639 260.037 896.978 258.328 895.709 257.335C894.441 256.342 892.786 255.846 890.69 255.846H884.238V268.972Z" fill="black"></path><path d="M918.045 288.771C917.604 288.771 917.163 288.661 916.722 288.385C916.28 288.109 916.115 287.779 916.115 287.227V253.53C916.115 253.033 916.336 252.647 916.722 252.371C917.108 252.096 917.549 251.985 918.045 251.985H935.914C936.466 251.985 936.852 252.206 937.017 252.592C937.183 252.978 937.348 253.419 937.348 253.861C937.348 254.357 937.238 254.798 936.962 255.239C936.686 255.625 936.355 255.846 935.859 255.846H920.306V268.586H928.138C928.579 268.586 928.965 268.751 929.241 269.137C929.517 269.523 929.627 269.91 929.627 270.406C929.627 270.792 929.517 271.178 929.296 271.564C929.075 271.95 928.689 272.116 928.138 272.116H920.306V284.911H935.859C936.3 284.911 936.686 285.131 936.962 285.517C937.238 285.903 937.348 286.345 937.348 286.896C937.348 287.337 937.238 287.723 937.017 288.165C936.797 288.606 936.411 288.771 935.914 288.771H918.045Z" fill="black"></path></g><defs><radialGradient id="paint0_radial_25_80" cx="0" cy="0" r="1" gradientUnits="userSpaceOnUse" gradientTransform="translate(146.481 13.9532) scale(287.668 287.668)"><stop stop-color="#7339FF"></stop><stop offset="1" stop-color="#2E07FE"></stop></radialGradient><clipPath id="clip0_25_80"><rect width="1000" height="291.474" fill="white"></rect></clipPath></defs></svg>